<svg width="56" height="56" viewBox="0 0 56 56" fill="none" xmlns="http://www.w3.org/2000/svg">
<path d="M56 28.0315L51.2072 21.7882L52.2793 14.0315L44.964 11.1306L42.0631 3.81528L34.3063 4.88735L28 0.0314941L21.7568 4.82429L14 3.75221L11.0991 11.0675L3.78378 13.9684L4.85586 21.7252L0 28.0315L4.79279 34.2747L3.72072 42.0315L11.036 44.9324L13.9369 52.2477L21.6937 51.1756L27.9369 55.9684L34.1802 51.1756L41.9369 52.2477L44.8378 44.9324L52.1532 41.9684L51.0811 34.2117L56 28.0315ZM25.7297 37.1126L16.3964 29.4189L18.4144 26.9594L25.3514 32.6351L37.2072 18.9504L39.6036 21.0315L25.7297 37.1126Z" fill="#AC8BD3"/>
</svg>
