<svg width="51" height="47" viewBox="0 0 51 47" fill="none" xmlns="http://www.w3.org/2000/svg">
<path d="M38.25 19.5833H51L44.625 11.75L38.25 19.5833ZM38.25 27.4167H51L44.625 35.25L38.25 27.4167Z" fill="#D6B1FF"/>
<path d="M2.125 0H14.875V47H2.125C1.56141 47 1.02091 46.7937 0.622396 46.4264C0.223882 46.0592 0 45.5611 0 45.0417V1.95833C0 1.43895 0.223882 0.94084 0.622396 0.573581C1.02091 0.206322 1.56141 0 2.125 0Z" fill="#8C30F5"/>
<path d="M19.125 0H31.875C32.4386 0 32.9791 0.206322 33.3776 0.573581C33.7761 0.94084 34 1.43895 34 1.95833V45.0417C34 45.5611 33.7761 46.0592 33.3776 46.4264C32.9791 46.7937 32.4386 47 31.875 47H19.125V0Z" fill="#330667"/>
</svg>
