<svg width="51" height="47" viewBox="0 0 51 47" fill="none" xmlns="http://www.w3.org/2000/svg">
<path d="M48.875 11.75V3.91671C48.875 3.39733 48.6511 2.89921 48.2526 2.53196C47.8541 2.1647 47.3136 1.95837 46.75 1.95837H4.25C3.68641 1.95837 3.14591 2.1647 2.7474 2.53196C2.34888 2.89921 2.125 3.39733 2.125 3.91671V11.75H48.875Z" fill="#330667"/>
<path d="M2.125 15.6667V43.0834C2.125 43.6028 2.34888 44.1009 2.7474 44.4682C3.14591 44.8354 3.68641 45.0417 4.25 45.0417H14.875V15.6667H2.125Z" fill="#D6B1FF"/>
<path d="M19.125 45.0417H46.75C47.3136 45.0417 47.8541 44.8354 48.2526 44.4682C48.6511 44.1009 48.875 43.6028 48.875 43.0834V15.6667H19.125V45.0417Z" fill="#8C30F5"/>
</svg>
