<svg width="36" height="36" viewBox="0 0 36 36" fill="none" xmlns="http://www.w3.org/2000/svg">
<rect width="36" height="36" rx="4" fill="#4F1699"/>
<path d="M22.0325 9H13.9672C11.2283 9 9 11.2284 9 13.9673V22.0326C9 24.7716 11.2283 26.9999 13.9672 26.9999H22.0325C24.7716 26.9999 26.9999 24.7715 26.9999 22.0326V13.9673C27 11.2284 24.7716 9 22.0325 9ZM25.403 22.0326C25.403 23.891 23.891 25.4029 22.0326 25.4029H13.9672C12.1089 25.403 10.597 23.891 10.597 22.0326V13.9673C10.597 12.109 12.1089 10.597 13.9672 10.597H22.0325C23.8909 10.597 25.4029 12.109 25.4029 13.9673V22.0326H25.403Z" fill="white"/>
<path d="M18.0004 13.3618C15.4429 13.3618 13.3623 15.4424 13.3623 17.9999C13.3623 20.5573 15.4429 22.6378 18.0004 22.6378C20.5579 22.6378 22.6385 20.5573 22.6385 17.9999C22.6385 15.4424 20.5579 13.3618 18.0004 13.3618ZM18.0004 21.0407C16.3236 21.0407 14.9593 19.6766 14.9593 17.9998C14.9593 16.3229 16.3235 14.9587 18.0004 14.9587C19.6773 14.9587 21.0415 16.3229 21.0415 17.9998C21.0415 19.6766 19.6772 21.0407 18.0004 21.0407Z" fill="white"/>
<path d="M22.8318 12.0078C22.5241 12.0078 22.2218 12.1324 22.0045 12.3506C21.7862 12.5678 21.6606 12.8702 21.6606 13.179C21.6606 13.4868 21.7863 13.789 22.0045 14.0073C22.2217 14.2245 22.5241 14.3501 22.8318 14.3501C23.1406 14.3501 23.4419 14.2245 23.6601 14.0073C23.8784 13.789 24.0029 13.4867 24.0029 13.179C24.0029 12.8702 23.8784 12.5678 23.6601 12.3506C23.4429 12.1324 23.1406 12.0078 22.8318 12.0078Z" fill="white"/>
</svg>
