<svg width="26" height="32" viewBox="0 0 26 32" fill="none" xmlns="http://www.w3.org/2000/svg">
<path d="M13.0107 0C8.93488 0 4.79926 1.02156 0.720586 3.03729C0.197969 3.29628 0.0626563 3.54087 0.0626563 4.22719C0.0626563 7.02854 0.0455859 9.13925 0.0299219 11.2082C0.0142578 13.1924 0 15.1376 0 17.621C0 19.8036 0.632305 21.5863 1.98949 23.2323C5.04848 26.9458 9.01605 29.3802 12.8469 31.4593C12.8839 31.4766 13.1545 31.478 13.1787 31.4651C17.1563 29.3011 21.2605 26.7674 24.2782 22.9373C25.4531 21.4467 26 19.8511 26 17.9159C26 16.7332 25.9914 14.4844 25.9815 12.0528C25.9701 9.18095 25.9587 6.05015 25.9587 4.11066C25.9587 3.50924 25.8263 3.28046 25.3421 3.04162C21.2363 1.02297 17.0865 0 13.0107 0Z" fill="#AC8BD3"/>
<path opacity="0.7" d="M8.20287 13.0448C8.68631 12.7637 9.28194 12.7637 9.76537 13.0448L12.6006 14.6935C13.0841 14.9746 13.3819 15.4941 13.3819 16.0563V19.3537C13.3819 19.9159 13.0841 20.4354 12.6006 20.7165L9.76537 22.3652C9.28194 22.6463 8.68631 22.6463 8.20287 22.3652L5.3676 20.7165C4.88416 20.4354 4.58635 19.9159 4.58635 19.3537V16.0563C4.58635 15.4941 4.88416 14.9746 5.3676 14.6935L8.20287 13.0448Z" fill="white"/>
<path opacity="0.5" d="M16.0158 13.0448C16.4993 12.7637 17.0949 12.7637 17.5783 13.0448L20.4136 14.6935C20.897 14.9746 21.1949 15.4941 21.1949 16.0563V19.3537C21.1949 19.9159 20.897 20.4354 20.4136 20.7165L17.5783 22.3652C17.0949 22.6463 16.4993 22.6463 16.0158 22.3652L13.1806 20.7165C12.6971 20.4354 12.3993 19.9159 12.3993 19.3537V16.0563C12.3993 15.4941 12.6971 14.9746 13.1806 14.6935L16.0158 13.0448Z" fill="white"/>
<path opacity="0.9" d="M12.109 5.96205C12.5925 5.68095 13.1881 5.68095 13.6715 5.96205L16.5068 7.61072C16.9902 7.89181 17.288 8.41133 17.288 8.97356V12.2709C17.288 12.8331 16.9902 13.3527 16.5068 13.6338L13.6715 15.2824C13.1881 15.5635 12.5925 15.5635 12.109 15.2824L9.27374 13.6338C8.79031 13.3527 8.49249 12.8331 8.49249 12.2709V8.97356C8.49249 8.41133 8.79031 7.89181 9.27374 7.61072L12.109 5.96205Z" fill="white"/>
</svg>
