<svg width="87" height="53" viewBox="0 0 87 53" fill="none" xmlns="http://www.w3.org/2000/svg">
<path d="M60.431 36.2612C66.3062 27.7609 71.2064 18.9019 74.0202 9.89534C73.1314 9.75033 72.6652 9.20156 72.9564 8.03777L61.1073 5.57019C60.9723 6.74523 60.2448 7.19524 59.0485 6.69523C58.1597 17.2918 55.2658 25.7846 52.0945 33.9837C55.4658 23.1808 56.3521 11.8754 54.3658 0L81.718 5.00017C78.2266 12.8492 71.5351 22.982 60.431 36.2612Z" fill="#4F1699"/>
<path d="M63.688 38.8311C69.7569 33.6484 75.5071 27.4682 80.5873 19.1129L77.306 17.4779L79.2148 14.3528L87 17.8817C81.8449 24.4006 73.3608 31.5096 63.688 38.8311Z" fill="#4F1699"/>
<path d="M66.4877 18.7814C67.9216 15.3267 67.9658 12.062 66.5866 11.4896C65.2074 10.9172 62.927 13.2537 61.4931 16.7085C60.0593 20.1632 60.0151 23.4279 61.3943 24.0003C62.7735 24.5727 65.0539 22.2362 66.4877 18.7814Z" fill="#4F1699"/>
<path d="M51.7331 51.7083C51.7331 51.0045 52.2056 50.4995 52.8694 50.4995C53.5331 50.4995 53.9944 50.9995 53.9944 51.7083C53.9944 52.3808 53.5481 52.9033 52.8581 52.9033C52.1918 52.9033 51.7231 52.3771 51.7331 51.7083Z" fill="#4F1699"/>
<path d="M56.0753 45.9691C56.0753 45.0078 56.044 44.244 55.999 43.4802H57.4553L57.5441 44.964H57.5903C58.1028 44.089 58.9654 43.2715 60.4979 43.2715C61.748 43.2715 62.7005 44.0315 63.0955 45.1178H63.133C63.3895 44.6481 63.7442 44.2392 64.1731 43.919C64.7306 43.499 65.3306 43.2715 66.1994 43.2715C67.4294 43.2715 69.2407 44.064 69.2407 47.2716V52.6968H67.6057V47.4829C67.6057 45.6978 66.9481 44.6415 65.6056 44.6415C64.6443 44.6415 63.908 45.3403 63.6118 46.1503C63.5226 46.4215 63.4762 46.7049 63.4743 46.9904V52.6931H61.8405V47.1641C61.8405 45.6978 61.1917 44.6415 59.9267 44.6415C58.8829 44.6415 58.1166 45.4753 57.8378 46.3141C57.7531 46.5808 57.7109 46.8592 57.7128 47.1391V52.6931H56.0753V45.9691Z" fill="#4F1699"/>
<path d="M72.9008 48.3892C72.9333 50.6542 74.3708 51.588 76.0534 51.588C77.2522 51.588 77.9847 51.373 78.6047 51.1155L78.8985 52.3055C78.3122 52.573 77.2884 52.8931 75.8246 52.8931C72.9933 52.8931 71.292 51.0067 71.292 48.2429C71.292 45.4516 72.9358 43.2715 75.6259 43.2715C78.626 43.2715 79.4173 45.9078 79.4173 47.6041C79.4233 47.867 79.4044 48.1298 79.361 48.3892H72.9008ZM77.8035 47.1841C77.821 46.1278 77.3722 44.4715 75.4934 44.4715C73.7821 44.4715 73.0545 46.0178 72.9208 47.1841H77.8035Z" fill="#4F1699"/>
<path d="M0.760026 48.3542C2.00048 48.9536 3.35758 49.2728 4.73516 49.2893C6.26521 49.2893 7.00149 48.713 7.00149 47.8542C7.00149 46.9654 6.25146 46.4867 4.46015 45.7616C1.62881 44.5578 0.153755 42.889 0.153755 40.7377C0.153755 37.7901 2.47508 35.4463 6.66523 35.4463C8.43654 35.4463 9.79033 35.8013 10.7279 36.2376L9.89408 39.7939C8.87847 39.3045 7.76514 39.0514 6.63772 39.0539C5.27268 39.0539 4.54765 39.6164 4.54765 40.3727C4.54765 41.1977 5.28643 41.5852 7.364 42.4715C10.2153 43.6516 11.4091 45.3379 11.4091 47.5179C11.4091 50.5381 9.09031 52.9244 4.5339 52.9244C2.65884 52.9244 0.857529 52.4506 0 52.0031L0.760026 48.3542Z" fill="#4F1699"/>
<path d="M17.2417 48.0855C17.3579 49.1155 18.6492 49.7043 20.218 49.7043C21.2801 49.7148 22.3374 49.5622 23.3531 49.2518L23.8994 52.2144C22.5794 52.7282 21.0243 52.9294 19.538 52.9294C15.4129 52.9294 13.0815 50.5981 13.0815 46.6717C13.0815 43.3703 15.0966 40.0215 19.1792 40.0215C22.8044 40.0215 24.5469 42.6466 24.5469 46.2804C24.5585 46.8875 24.507 47.4941 24.3932 48.0905L17.2417 48.0855ZM20.5605 45.1192C20.5605 44.2516 20.2655 42.9391 18.9642 42.9391C17.7267 42.9391 17.2542 44.2441 17.2017 45.1192H20.5605Z" fill="#4F1699"/>
<path d="M31.3948 36.7949V40.2713H33.9361V43.4226H31.3948V47.4028C31.3948 48.8466 31.8148 49.3728 32.7773 49.3728C33.1222 49.3747 33.4666 49.345 33.8061 49.2841V52.6167C33.2873 52.783 32.3336 52.9242 31.2285 52.9242C29.9785 52.9242 28.9272 52.5242 28.2709 51.8904C27.5134 51.1554 27.1109 50.0004 27.1109 48.0616V43.4226H25.6108V40.2713H27.1109V37.7575L31.3948 36.7949Z" fill="#4F1699"/>
<path d="M40.7107 36.7949V40.2713H43.2558V43.4226H40.7107V47.4028C40.7107 48.8466 41.132 49.3728 42.0945 49.3728C42.439 49.3747 42.783 49.345 43.122 49.2841V52.6167C42.6045 52.783 41.6507 52.9242 40.5457 52.9242C39.2957 52.9242 38.2431 52.5242 37.5868 51.8904C36.8293 51.1554 36.4268 50.0004 36.4268 48.0616V43.4226H34.9268V40.2713H36.4268V37.7575L40.7107 36.7949Z" fill="#4F1699"/>
<path d="M45.1655 34.9048H49.5294V52.6929H45.1655V34.9048Z" fill="#4F1699"/>
</svg>
