<svg width="427" height="345" viewBox="0 0 427 345" fill="none" xmlns="http://www.w3.org/2000/svg">
<g filter="url(#filter0_d)">
<rect x="20" y="15" width="366.067" height="285" rx="12" fill="white"/>
</g>
<mask id="mask0" mask-type="alpha" maskUnits="userSpaceOnUse" x="20" y="15" width="367" height="285">
<rect x="20.475" y="15.475" width="365.117" height="284.05" rx="10.925" fill="white" stroke="white" stroke-width="0.95"/>
</mask>
<g mask="url(#mask0)">
<rect opacity="0.5" x="20" y="15" width="49.4" height="49.4" fill="#F6EFFF"/>
<rect opacity="0.2" x="69.3999" y="15" width="49.4" height="49.4" fill="#EEF0F1"/>
<rect opacity="0.3" x="118.8" y="15" width="49.4" height="49.4" fill="#EAD8FF"/>
<rect opacity="0.01" x="168.2" y="15" width="49.4" height="49.4" fill="#EEF0F1"/>
<rect opacity="0.4" x="217.6" y="15" width="49.4" height="49.4" fill="#F6EFFF"/>
<rect opacity="0.1" x="267" y="15" width="49.4" height="49.4" fill="#EEF0F1"/>
<rect opacity="0.4" x="316.4" y="15" width="49.4" height="49.4" fill="#E2C4FF" fill-opacity="0.41"/>
<rect opacity="0.2" x="365.8" y="15" width="49.4" height="49.4" fill="#EEF0F1"/>
<rect opacity="0.2" x="20" y="64.4" width="49.4" height="49.4" fill="#EEF0F1"/>
<rect opacity="0.05" x="69.3999" y="64.4" width="49.4" height="49.4" fill="#EEF0F1"/>
<rect opacity="0.4" x="119" y="65.0001" width="49.4" height="49.4" fill="#F6EFFF"/>
<rect opacity="0.2" x="168.2" y="64.4" width="49.4" height="49.4" fill="#EEF0F1"/>
<rect opacity="0.1" x="168.2" y="113.8" width="49.4" height="49.4" fill="#EEF0F1"/>
<rect opacity="0.4" x="217.6" y="64.4" width="49.4" height="49.4" fill="#F6EFFF"/>
<rect opacity="0.3" x="217.6" y="113.8" width="49.4" height="49.4" fill="#EEF0F1"/>
<rect opacity="0.2" x="217.6" y="163.2" width="49.4" height="49.4" fill="#EEF0F1"/>
<rect opacity="0.2" x="267" y="64.4" width="49.4" height="49.4" fill="#FDE8FF"/>
<rect opacity="0.1" x="316.4" y="64.4" width="49.4" height="49.4" fill="#EEF0F1"/>
<rect opacity="0.3" x="365.8" y="64.4" width="49.4" height="49.4" fill="#EEF0F1"/>
</g>
<defs>
<filter id="filter0_d" x="0" y="0" width="426.067" height="345" filterUnits="userSpaceOnUse" color-interpolation-filters="sRGB">
<feFlood flood-opacity="0" result="BackgroundImageFix"/>
<feColorMatrix in="SourceAlpha" type="matrix" values="0 0 0 0 0 0 0 0 0 0 0 0 0 0 0 0 0 0 127 0"/>
<feOffset dx="10" dy="15"/>
<feGaussianBlur stdDeviation="15"/>
<feColorMatrix type="matrix" values="0 0 0 0 0.331285 0 0 0 0 0.329167 0 0 0 0 0.333333 0 0 0 0.08 0"/>
<feBlend mode="normal" in2="BackgroundImageFix" result="effect1_dropShadow"/>
<feBlend mode="normal" in="SourceGraphic" in2="effect1_dropShadow" result="shape"/>
</filter>
</defs>
</svg>
