<svg width="36" height="36" viewBox="0 0 36 36" fill="none" xmlns="http://www.w3.org/2000/svg">
<path opacity="0.15" d="M18 0C27.9411 0 36 8.05887 36 18C36 27.9411 27.9411 36 18 36C8.05887 36 0 27.9411 0 18C0 8.05887 8.05887 0 18 0Z" fill="#AD6FF7"/>
<path d="M25.6618 10.3382C25.2044 9.88076 24.5182 9.88076 24.0608 10.3382L17.9999 16.3991L11.9389 10.3382C11.4815 9.88076 10.7954 9.88076 10.3379 10.3382C9.88052 10.7956 9.88052 11.4818 10.3379 11.9392L16.3989 18.0001L10.3379 24.061C9.88052 24.5185 9.88052 25.2046 10.3379 25.662C10.5667 25.8908 10.7954 26.0051 11.1384 26.0051C11.4815 26.0051 11.7102 25.8908 11.9389 25.662L17.9999 19.6011L24.0608 25.662C24.2895 25.8908 24.6326 26.0051 24.8613 26.0051C25.09 26.0051 25.4331 25.8908 25.6618 25.662C26.1192 25.2046 26.1192 24.5185 25.6618 24.061L19.6009 18.0001L25.6618 11.9392C26.1192 11.4818 26.1192 10.7956 25.6618 10.3382Z" fill="#4F1699"/>
</svg>
